<mxfile host="app.diagrams.net" modified="2024-02-28T13:00:36.513Z" agent="Mozilla/5.0 (Windows NT 10.0; Win64; x64) AppleWebKit/537.36 (KHTML, like Gecko) Chrome/119.0.0.0 Safari/537.36" etag="wH8k63-5bIsbccBsqId5" version="22.1.21" type="github">
  <diagram name="第 1 页" id="O520n5k4d-XmnUUx3r3Z">
    <mxGraphModel dx="2263" dy="852" grid="1" gridSize="10" guides="1" tooltips="1" connect="1" arrows="1" fold="1" page="1" pageScale="1" pageWidth="827" pageHeight="1169" math="0" shadow="0">
      <root>
        <mxCell id="0" />
        <mxCell id="1" parent="0" />
        <mxCell id="6Zg3kNEFJYCapv534Jjk-8" style="edgeStyle=orthogonalEdgeStyle;rounded=0;orthogonalLoop=1;jettySize=auto;html=1;exitX=0.5;exitY=0;exitDx=0;exitDy=0;entryX=0.5;entryY=1;entryDx=0;entryDy=0;endArrow=none;endFill=0;" edge="1" parent="1" source="6Zg3kNEFJYCapv534Jjk-3" target="6Zg3kNEFJYCapv534Jjk-4">
          <mxGeometry relative="1" as="geometry" />
        </mxCell>
        <mxCell id="6Zg3kNEFJYCapv534Jjk-9" style="edgeStyle=orthogonalEdgeStyle;rounded=0;orthogonalLoop=1;jettySize=auto;html=1;exitX=0;exitY=0.5;exitDx=0;exitDy=0;endArrow=none;endFill=0;" edge="1" parent="1" source="6Zg3kNEFJYCapv534Jjk-3" target="6Zg3kNEFJYCapv534Jjk-5">
          <mxGeometry relative="1" as="geometry" />
        </mxCell>
        <mxCell id="6Zg3kNEFJYCapv534Jjk-11" style="rounded=0;orthogonalLoop=1;jettySize=auto;html=1;exitX=0;exitY=1;exitDx=0;exitDy=0;entryX=1;entryY=0;entryDx=0;entryDy=0;endArrow=none;endFill=0;" edge="1" parent="1" source="6Zg3kNEFJYCapv534Jjk-3" target="6Zg3kNEFJYCapv534Jjk-7">
          <mxGeometry relative="1" as="geometry" />
        </mxCell>
        <mxCell id="6Zg3kNEFJYCapv534Jjk-17" style="edgeStyle=orthogonalEdgeStyle;rounded=0;orthogonalLoop=1;jettySize=auto;html=1;exitX=1;exitY=0.5;exitDx=0;exitDy=0;entryX=0;entryY=0.5;entryDx=0;entryDy=0;endArrow=none;endFill=0;" edge="1" parent="1" source="6Zg3kNEFJYCapv534Jjk-3" target="6Zg3kNEFJYCapv534Jjk-13">
          <mxGeometry relative="1" as="geometry" />
        </mxCell>
        <mxCell id="6Zg3kNEFJYCapv534Jjk-26" value="&lt;font style=&quot;font-size: 18px;&quot;&gt;1&lt;/font&gt;" style="edgeLabel;html=1;align=center;verticalAlign=middle;resizable=0;points=[];" vertex="1" connectable="0" parent="6Zg3kNEFJYCapv534Jjk-17">
          <mxGeometry x="0.0867" y="2" relative="1" as="geometry">
            <mxPoint as="offset" />
          </mxGeometry>
        </mxCell>
        <mxCell id="6Zg3kNEFJYCapv534Jjk-38" style="rounded=0;orthogonalLoop=1;jettySize=auto;html=1;exitX=0;exitY=0;exitDx=0;exitDy=0;entryX=1;entryY=1;entryDx=0;entryDy=0;endArrow=none;endFill=0;" edge="1" parent="1" source="6Zg3kNEFJYCapv534Jjk-3" target="6Zg3kNEFJYCapv534Jjk-6">
          <mxGeometry relative="1" as="geometry" />
        </mxCell>
        <mxCell id="6Zg3kNEFJYCapv534Jjk-42" style="edgeStyle=orthogonalEdgeStyle;rounded=0;orthogonalLoop=1;jettySize=auto;html=1;exitX=0.5;exitY=1;exitDx=0;exitDy=0;endArrow=none;endFill=0;" edge="1" parent="1" source="6Zg3kNEFJYCapv534Jjk-3" target="6Zg3kNEFJYCapv534Jjk-41">
          <mxGeometry relative="1" as="geometry" />
        </mxCell>
        <mxCell id="6Zg3kNEFJYCapv534Jjk-3" value="&lt;font style=&quot;font-size: 18px;&quot;&gt;用户&lt;/font&gt;" style="rounded=0;whiteSpace=wrap;html=1;" vertex="1" parent="1">
          <mxGeometry x="180" y="270" width="120" height="60" as="geometry" />
        </mxCell>
        <mxCell id="6Zg3kNEFJYCapv534Jjk-4" value="&lt;font style=&quot;font-size: 18px;&quot;&gt;用户标识符&lt;/font&gt;" style="ellipse;whiteSpace=wrap;html=1;" vertex="1" parent="1">
          <mxGeometry x="180" y="130" width="120" height="80" as="geometry" />
        </mxCell>
        <mxCell id="6Zg3kNEFJYCapv534Jjk-5" value="&lt;font style=&quot;font-size: 18px;&quot;&gt;用户名&lt;/font&gt;" style="ellipse;whiteSpace=wrap;html=1;" vertex="1" parent="1">
          <mxGeometry x="-10" y="260" width="120" height="80" as="geometry" />
        </mxCell>
        <mxCell id="6Zg3kNEFJYCapv534Jjk-6" value="&lt;font style=&quot;font-size: 18px;&quot;&gt;密码&lt;/font&gt;" style="ellipse;whiteSpace=wrap;html=1;" vertex="1" parent="1">
          <mxGeometry x="10" y="120" width="120" height="80" as="geometry" />
        </mxCell>
        <mxCell id="6Zg3kNEFJYCapv534Jjk-7" value="&lt;font style=&quot;font-size: 18px;&quot;&gt;联系信息&lt;/font&gt;" style="ellipse;whiteSpace=wrap;html=1;" vertex="1" parent="1">
          <mxGeometry x="10" y="390" width="120" height="80" as="geometry" />
        </mxCell>
        <mxCell id="6Zg3kNEFJYCapv534Jjk-19" style="edgeStyle=orthogonalEdgeStyle;rounded=0;orthogonalLoop=1;jettySize=auto;html=1;exitX=0.5;exitY=0;exitDx=0;exitDy=0;entryX=0.5;entryY=1;entryDx=0;entryDy=0;endArrow=none;endFill=0;" edge="1" parent="1" source="6Zg3kNEFJYCapv534Jjk-12" target="6Zg3kNEFJYCapv534Jjk-15">
          <mxGeometry relative="1" as="geometry" />
        </mxCell>
        <mxCell id="6Zg3kNEFJYCapv534Jjk-22" style="rounded=0;orthogonalLoop=1;jettySize=auto;html=1;exitX=0;exitY=1;exitDx=0;exitDy=0;endArrow=none;endFill=0;" edge="1" parent="1" source="6Zg3kNEFJYCapv534Jjk-12" target="6Zg3kNEFJYCapv534Jjk-14">
          <mxGeometry relative="1" as="geometry" />
        </mxCell>
        <mxCell id="6Zg3kNEFJYCapv534Jjk-23" style="edgeStyle=orthogonalEdgeStyle;rounded=0;orthogonalLoop=1;jettySize=auto;html=1;exitX=0.5;exitY=1;exitDx=0;exitDy=0;entryX=0.5;entryY=0;entryDx=0;entryDy=0;endArrow=none;endFill=0;" edge="1" parent="1" source="6Zg3kNEFJYCapv534Jjk-12" target="6Zg3kNEFJYCapv534Jjk-16">
          <mxGeometry relative="1" as="geometry" />
        </mxCell>
        <mxCell id="6Zg3kNEFJYCapv534Jjk-28" style="edgeStyle=orthogonalEdgeStyle;rounded=0;orthogonalLoop=1;jettySize=auto;html=1;exitX=1;exitY=0.5;exitDx=0;exitDy=0;entryX=0;entryY=0.5;entryDx=0;entryDy=0;endArrow=none;endFill=0;" edge="1" parent="1" source="6Zg3kNEFJYCapv534Jjk-12" target="6Zg3kNEFJYCapv534Jjk-25">
          <mxGeometry relative="1" as="geometry" />
        </mxCell>
        <mxCell id="6Zg3kNEFJYCapv534Jjk-30" value="&lt;font style=&quot;font-size: 18px;&quot;&gt;1&lt;/font&gt;" style="edgeLabel;html=1;align=center;verticalAlign=middle;resizable=0;points=[];" vertex="1" connectable="0" parent="6Zg3kNEFJYCapv534Jjk-28">
          <mxGeometry x="-0.0593" relative="1" as="geometry">
            <mxPoint as="offset" />
          </mxGeometry>
        </mxCell>
        <mxCell id="6Zg3kNEFJYCapv534Jjk-12" value="&lt;font style=&quot;font-size: 18px;&quot;&gt;角色&lt;/font&gt;" style="rounded=0;whiteSpace=wrap;html=1;" vertex="1" parent="1">
          <mxGeometry x="570" y="270" width="120" height="60" as="geometry" />
        </mxCell>
        <mxCell id="6Zg3kNEFJYCapv534Jjk-18" style="edgeStyle=orthogonalEdgeStyle;rounded=0;orthogonalLoop=1;jettySize=auto;html=1;exitX=1;exitY=0.5;exitDx=0;exitDy=0;entryX=0;entryY=0.5;entryDx=0;entryDy=0;endArrow=none;endFill=0;" edge="1" parent="1" source="6Zg3kNEFJYCapv534Jjk-13" target="6Zg3kNEFJYCapv534Jjk-12">
          <mxGeometry relative="1" as="geometry" />
        </mxCell>
        <mxCell id="6Zg3kNEFJYCapv534Jjk-27" value="&lt;font style=&quot;font-size: 18px;&quot;&gt;N&lt;/font&gt;" style="edgeLabel;html=1;align=center;verticalAlign=middle;resizable=0;points=[];" vertex="1" connectable="0" parent="6Zg3kNEFJYCapv534Jjk-18">
          <mxGeometry x="-0.1926" y="-1" relative="1" as="geometry">
            <mxPoint as="offset" />
          </mxGeometry>
        </mxCell>
        <mxCell id="6Zg3kNEFJYCapv534Jjk-13" value="&lt;font style=&quot;font-size: 18px;&quot;&gt;拥有&lt;/font&gt;" style="rhombus;whiteSpace=wrap;html=1;" vertex="1" parent="1">
          <mxGeometry x="400" y="260" width="80" height="80" as="geometry" />
        </mxCell>
        <mxCell id="6Zg3kNEFJYCapv534Jjk-14" value="&lt;font style=&quot;font-size: 18px;&quot;&gt;角色名&lt;/font&gt;" style="ellipse;whiteSpace=wrap;html=1;" vertex="1" parent="1">
          <mxGeometry x="420" y="410" width="120" height="80" as="geometry" />
        </mxCell>
        <mxCell id="6Zg3kNEFJYCapv534Jjk-15" value="&lt;font style=&quot;font-size: 18px;&quot;&gt;角色标识符&lt;/font&gt;" style="ellipse;whiteSpace=wrap;html=1;" vertex="1" parent="1">
          <mxGeometry x="570" y="130" width="120" height="80" as="geometry" />
        </mxCell>
        <mxCell id="6Zg3kNEFJYCapv534Jjk-16" value="&lt;font style=&quot;font-size: 18px;&quot;&gt;角色描述&lt;/font&gt;" style="ellipse;whiteSpace=wrap;html=1;" vertex="1" parent="1">
          <mxGeometry x="570" y="410" width="120" height="80" as="geometry" />
        </mxCell>
        <mxCell id="6Zg3kNEFJYCapv534Jjk-35" style="rounded=0;orthogonalLoop=1;jettySize=auto;html=1;exitX=0;exitY=1;exitDx=0;exitDy=0;entryX=1;entryY=0;entryDx=0;entryDy=0;endArrow=none;endFill=0;" edge="1" parent="1" source="6Zg3kNEFJYCapv534Jjk-24" target="6Zg3kNEFJYCapv534Jjk-33">
          <mxGeometry relative="1" as="geometry" />
        </mxCell>
        <mxCell id="6Zg3kNEFJYCapv534Jjk-36" style="edgeStyle=orthogonalEdgeStyle;rounded=0;orthogonalLoop=1;jettySize=auto;html=1;exitX=0.5;exitY=1;exitDx=0;exitDy=0;endArrow=none;endFill=0;" edge="1" parent="1" source="6Zg3kNEFJYCapv534Jjk-24" target="6Zg3kNEFJYCapv534Jjk-34">
          <mxGeometry relative="1" as="geometry" />
        </mxCell>
        <mxCell id="6Zg3kNEFJYCapv534Jjk-37" style="edgeStyle=orthogonalEdgeStyle;rounded=0;orthogonalLoop=1;jettySize=auto;html=1;exitX=0.5;exitY=0;exitDx=0;exitDy=0;entryX=0.5;entryY=1;entryDx=0;entryDy=0;endArrow=none;endFill=0;" edge="1" parent="1" source="6Zg3kNEFJYCapv534Jjk-24" target="6Zg3kNEFJYCapv534Jjk-32">
          <mxGeometry relative="1" as="geometry" />
        </mxCell>
        <mxCell id="6Zg3kNEFJYCapv534Jjk-24" value="&lt;font style=&quot;font-size: 18px;&quot;&gt;权限&lt;/font&gt;" style="rounded=0;whiteSpace=wrap;html=1;" vertex="1" parent="1">
          <mxGeometry x="930" y="270" width="120" height="60" as="geometry" />
        </mxCell>
        <mxCell id="6Zg3kNEFJYCapv534Jjk-29" style="edgeStyle=orthogonalEdgeStyle;rounded=0;orthogonalLoop=1;jettySize=auto;html=1;exitX=1;exitY=0.5;exitDx=0;exitDy=0;entryX=0;entryY=0.5;entryDx=0;entryDy=0;endArrow=none;endFill=0;" edge="1" parent="1" source="6Zg3kNEFJYCapv534Jjk-25" target="6Zg3kNEFJYCapv534Jjk-24">
          <mxGeometry relative="1" as="geometry" />
        </mxCell>
        <mxCell id="6Zg3kNEFJYCapv534Jjk-31" value="&lt;font style=&quot;font-size: 18px;&quot;&gt;N&lt;/font&gt;" style="edgeLabel;html=1;align=center;verticalAlign=middle;resizable=0;points=[];" vertex="1" connectable="0" parent="6Zg3kNEFJYCapv534Jjk-29">
          <mxGeometry x="0.0095" y="-3" relative="1" as="geometry">
            <mxPoint as="offset" />
          </mxGeometry>
        </mxCell>
        <mxCell id="6Zg3kNEFJYCapv534Jjk-25" value="&lt;font style=&quot;font-size: 18px;&quot;&gt;拥有&lt;/font&gt;" style="rhombus;whiteSpace=wrap;html=1;" vertex="1" parent="1">
          <mxGeometry x="780" y="260" width="80" height="80" as="geometry" />
        </mxCell>
        <mxCell id="6Zg3kNEFJYCapv534Jjk-32" value="&lt;font style=&quot;font-size: 18px;&quot;&gt;权限标识符&lt;/font&gt;" style="ellipse;whiteSpace=wrap;html=1;" vertex="1" parent="1">
          <mxGeometry x="930" y="130" width="120" height="80" as="geometry" />
        </mxCell>
        <mxCell id="6Zg3kNEFJYCapv534Jjk-33" value="&lt;font style=&quot;font-size: 18px;&quot;&gt;权限代码&lt;/font&gt;" style="ellipse;whiteSpace=wrap;html=1;" vertex="1" parent="1">
          <mxGeometry x="790" y="410" width="120" height="80" as="geometry" />
        </mxCell>
        <mxCell id="6Zg3kNEFJYCapv534Jjk-34" value="&lt;font style=&quot;font-size: 18px;&quot;&gt;权限描述&lt;/font&gt;" style="ellipse;whiteSpace=wrap;html=1;" vertex="1" parent="1">
          <mxGeometry x="930" y="410" width="120" height="80" as="geometry" />
        </mxCell>
        <mxCell id="6Zg3kNEFJYCapv534Jjk-47" style="edgeStyle=orthogonalEdgeStyle;rounded=0;orthogonalLoop=1;jettySize=auto;html=1;exitX=1;exitY=0.5;exitDx=0;exitDy=0;endArrow=none;endFill=0;" edge="1" parent="1" source="6Zg3kNEFJYCapv534Jjk-40" target="6Zg3kNEFJYCapv534Jjk-45">
          <mxGeometry relative="1" as="geometry" />
        </mxCell>
        <mxCell id="6Zg3kNEFJYCapv534Jjk-40" value="&lt;font style=&quot;font-size: 18px;&quot;&gt;令牌&lt;/font&gt;" style="rounded=0;whiteSpace=wrap;html=1;" vertex="1" parent="1">
          <mxGeometry x="180" y="550" width="120" height="60" as="geometry" />
        </mxCell>
        <mxCell id="6Zg3kNEFJYCapv534Jjk-43" style="edgeStyle=orthogonalEdgeStyle;rounded=0;orthogonalLoop=1;jettySize=auto;html=1;exitX=0.5;exitY=1;exitDx=0;exitDy=0;entryX=0.5;entryY=0;entryDx=0;entryDy=0;endArrow=none;endFill=0;" edge="1" parent="1" source="6Zg3kNEFJYCapv534Jjk-41" target="6Zg3kNEFJYCapv534Jjk-40">
          <mxGeometry relative="1" as="geometry" />
        </mxCell>
        <mxCell id="6Zg3kNEFJYCapv534Jjk-41" value="&lt;span style=&quot;font-size: 18px;&quot;&gt;拥有&lt;/span&gt;" style="rhombus;whiteSpace=wrap;html=1;" vertex="1" parent="1">
          <mxGeometry x="200" y="400" width="80" height="80" as="geometry" />
        </mxCell>
        <mxCell id="6Zg3kNEFJYCapv534Jjk-46" style="edgeStyle=orthogonalEdgeStyle;rounded=0;orthogonalLoop=1;jettySize=auto;html=1;exitX=1;exitY=0.5;exitDx=0;exitDy=0;entryX=0;entryY=0.5;entryDx=0;entryDy=0;endArrow=none;endFill=0;" edge="1" parent="1" source="6Zg3kNEFJYCapv534Jjk-44" target="6Zg3kNEFJYCapv534Jjk-40">
          <mxGeometry relative="1" as="geometry" />
        </mxCell>
        <mxCell id="6Zg3kNEFJYCapv534Jjk-44" value="&lt;font style=&quot;font-size: 18px;&quot;&gt;令牌标识符&lt;/font&gt;" style="ellipse;whiteSpace=wrap;html=1;" vertex="1" parent="1">
          <mxGeometry x="-10" y="540" width="120" height="80" as="geometry" />
        </mxCell>
        <mxCell id="6Zg3kNEFJYCapv534Jjk-45" value="&lt;font style=&quot;font-size: 18px;&quot;&gt;令牌过期时间&lt;/font&gt;" style="ellipse;whiteSpace=wrap;html=1;" vertex="1" parent="1">
          <mxGeometry x="380" y="540" width="120" height="80" as="geometry" />
        </mxCell>
      </root>
    </mxGraphModel>
  </diagram>
</mxfile>
